{
  "accessors": [
    {
      "bufferView": 2,
      "componentType": 5126,
      "count": 1386,
      "max": [
        57.49580001831055,
        98.72530364990234,
        15.63029956817627
      ],
      "min": [
        33.114601135253906,
        -184.1157989501953,
        -1.4364999532699585
      ],
      "type": "VEC3"
    },
    {
      "bufferView": 2,
      "byteOffset": 16632,
      "componentType": 5126,
      "count": 1386,
      "max": [
        0.9958998560905457,
        0.9969278573989868,
        0.5997107625007629
      ],
      "min": [
        -0.9935872554779053,
        -0.9654700756072998,
        -0.9087120294570923
      ],
      "type": "VEC3"
    },
    {
      "bufferView": 1,
      "componentType": 5126,
      "count": 1386,
      "max": [
        1.0,
        1.0
      ],
      "min": [
        0.0,
        0.0
      ],
      "type": "VEC2"
    },
    {
      "bufferView": 0,
      "componentType": 5125,
      "count": 3234,
      "type": "SCALAR"
    },
    {
      "bufferView": 2,
      "byteOffset": 33264,
      "componentType": 5126,
      "count": 4275,
      "max": [
        58.45940017700195,
        100.95590209960938,
        30.753799438476563
      ],
      "min": [
        34.20909881591797,
        -187.17430114746094,
        -2.4019999504089355
      ],
      "type": "VEC3"
    },
    {
      "bufferView": 2,
      "byteOffset": 84564,
      "componentType": 5126,
      "count": 4275,
      "max": [
        0.9932424426078796,
        0.9967591762542725,
        0.8383018374443054
      ],
      "min": [
        -0.9988290667533875,
        -0.9970347881317139,
        -0.9161252975463867
      ],
      "type": "VEC3"
    },
    {
      "bufferView": 1,
      "byteOffset": 11088,
      "componentType": 5126,
      "count": 4275,
      "max": [
        1.0,
        1.0
      ],
      "min": [
        0.0,
        0.0
      ],
      "type": "VEC2"
    },
    {
      "bufferView": 0,
      "byteOffset": 12936,
      "componentType": 5125,
      "count": 9975,
      "type": "SCALAR"
    },
    {
      "bufferView": 2,
      "byteOffset": 135864,
      "componentType": 5126,
      "count": 666,
      "max": [
        55.86759948730469,
        91.65869903564453,
        30.753799438476563
      ],
      "min": [
        32.388999938964844,
        -156.29049682617188,
        -1.1892999410629272
      ],
      "type": "VEC3"
    },
    {
      "bufferView": 2,
      "byteOffset": 143856,
      "componentType": 5126,
      "count": 666,
      "max": [
        0.9948446154594421,
        0.9971839785575867,
        0.5997107625007629
      ],
      "min": [
        -0.9963139891624451,
        -0.9654700756072998,
        -0.9253403544425964
      ],
      "type": "VEC3"
    },
    {
      "bufferView": 1,
      "byteOffset": 45288,
      "componentType": 5126,
      "count": 666,
      "max": [
        1.0,
        1.0
      ],
      "min": [
        0.0,
        0.0
      ],
      "type": "VEC2"
    },
    {
      "bufferView": 0,
      "byteOffset": 52836,
      "componentType": 5125,
      "count": 1554,
      "type": "SCALAR"
    }
  ],
  "asset": {
    "extras": {
      "author": "Nicothin (https://sketchfab.com/juhyt80)",
      "license": "CC-BY-4.0 (http://creativecommons.org/licenses/by/4.0/)",
      "source": "https://sketchfab.com/3d-models/low-poly-grass-pack-5194ac6d21c242e188c2fbbe0ac122e6",
      "title": "Low poly grass pack"
    },
    "generator": "Sketchfab-12.63.0",
    "version": "2.0"
  },
  "bufferViews": [
    {
      "buffer": 0,
      "byteLength": 59052,
      "name": "floatBufferViews",
      "target": 34963
    },
    {
      "buffer": 0,
      "byteLength": 50616,
      "byteOffset": 59052,
      "byteStride": 8,
      "name": "floatBufferViews",
      "target": 34962
    },
    {
      "buffer": 0,
      "byteLength": 151848,
      "byteOffset": 109668,
      "byteStride": 12,
      "name": "floatBufferViews",
      "target": 34962
    }
  ],
  "buffers": [
    {
      "byteLength": 261516,
      "uri": "scene.bin"
    }
  ],
  "materials": [
    {
      "doubleSided": true,
      "name": "material",
      "pbrMetallicRoughness": {
        "baseColorFactor": [
          0.0039,
          0.3098,
          0.0,
          1.0
        ],
        "metallicFactor": 0.0
      }
    },
    {
      "doubleSided": true,
      "name": "material_1",
      "pbrMetallicRoughness": {
        "baseColorFactor": [
          0.4039,
          0.5529,
          0.0039,
          1.0
        ],
        "metallicFactor": 0.0
      }
    },
    {
      "doubleSided": true,
      "name": "material_2",
      "pbrMetallicRoughness": {
        "baseColorFactor": [
          0.0,
          0.1529,
          0.0,
          1.0
        ],
        "metallicFactor": 0.0
      }
    }
  ],
  "meshes": [
    {
      "name": "Object_0",
      "primitives": [
        {
          "attributes": {
            "NORMAL": 1,
            "POSITION": 0,
            "TEXCOORD_0": 2
          },
          "indices": 3,
          "material": 0,
          "mode": 4
        }
      ]
    },
    {
      "name": "Object_1",
      "primitives": [
        {
          "attributes": {
            "NORMAL": 5,
            "POSITION": 4,
            "TEXCOORD_0": 6
          },
          "indices": 7,
          "material": 1,
          "mode": 4
        }
      ]
    },
    {
      "name": "Object_2",
      "primitives": [
        {
          "attributes": {
            "NORMAL": 9,
            "POSITION": 8,
            "TEXCOORD_0": 10
          },
          "indices": 11,
          "material": 2,
          "mode": 4
        }
      ]
    }
  ],
  "nodes": [
    {
      "children": [
        1
      ],
      "matrix": [
        1.0,
        0.0,
        0.0,
        0.0,
        0.0,
        2.220446049250313e-16,
        -1.0,
        0.0,
        0.0,
        1.0,
        2.220446049250313e-16,
        0.0,
        0.0,
        0.0,
        0.0,
        1.0
      ],
      "name": "Sketchfab_model"
    },
    {
      "children": [
        2,
        3,
        4
      ],
      "name": "grass.obj.cleaner.materialmerger.gles"
    },
    {
      "mesh": 0,
      "name": "Object_2"
    },
    {
      "mesh": 1,
      "name": "Object_3"
    },
    {
      "mesh": 2,
      "name": "Object_4"
    }
  ],
  "scene": 0,
  "scenes": [
    {
      "name": "Sketchfab_Scene",
      "nodes": [
        0
      ]
    }
  ]
}
